<svg width="2049" height="700" viewBox="0 0 2049 700" fill="none" xmlns="http://www.w3.org/2000/svg">
<g clip-path="url(#clip0_1_4)">
<path d="M865 188C897 188 920.833 195.5 936.5 210.5C952.167 225.5 960 247.667 960 277C960 292.667 956.167 306.5 948.5 318.5C940.833 330.167 929.5 339.333 914.5 346C899.5 352.333 881 355.5 859 355.5L861 333C871.333 333 883.167 334.5 896.5 337.5C909.833 340.167 922.667 345.167 935 352.5C947.667 359.5 958 369.5 966 382.5C974.333 395.167 978.5 411.5 978.5 431.5C978.5 453.5 974.833 471.5 967.5 485.5C960.5 499.5 951.167 510.333 939.5 518C927.833 525.667 915.333 531 902 534C888.667 536.667 875.833 538 863.5 538H739C730.333 538 723 535.167 717 529.5C711.333 523.5 708.5 516.167 708.5 507.5V218.5C708.5 209.833 711.333 202.667 717 197C723 191 730.333 188 739 188H865ZM856 247H767L773.5 239V329.5L767.5 325H857.5C867.167 325 875.833 321.833 883.5 315.5C891.167 309.167 895 300 895 288C895 273.667 891.333 263.333 884 257C877 250.333 867.667 247 856 247ZM860 384H769L773.5 380V485.5L768.5 480.5H863.5C878.833 480.5 891 476.5 900 468.5C909 460.167 913.5 447.833 913.5 431.5C913.5 416.5 910.5 405.667 904.5 399C898.5 392.333 891.333 388.167 883 386.5C874.667 384.833 867 384 860 384ZM1094.67 507.5C1094.67 516.167 1091.67 523.5 1085.67 529.5C1080.01 535.167 1072.84 538 1064.17 538C1055.84 538 1048.84 535.167 1043.17 529.5C1037.51 523.5 1034.67 516.167 1034.67 507.5V198.5C1034.67 189.833 1037.51 182.667 1043.17 177C1049.17 171 1056.51 168 1065.17 168C1073.84 168 1080.84 171 1086.17 177C1091.84 182.667 1094.67 189.833 1094.67 198.5V507.5ZM1383.44 265.5C1392.1 265.5 1399.27 268.333 1404.94 274C1410.6 279.667 1413.44 287 1413.44 296V507.5C1413.44 516.167 1410.6 523.5 1404.94 529.5C1399.27 535.167 1392.1 538 1383.44 538C1374.77 538 1367.6 535.167 1361.94 529.5C1356.27 523.5 1353.44 516.167 1353.44 507.5V483L1364.44 487.5C1364.44 491.833 1362.1 497.167 1357.44 503.5C1352.77 509.5 1346.44 515.5 1338.44 521.5C1330.44 527.5 1320.94 532.667 1309.94 537C1299.27 541 1287.6 543 1274.94 543C1251.94 543 1231.1 537.167 1212.44 525.5C1193.77 513.5 1178.94 497.167 1167.94 476.5C1157.27 455.5 1151.94 431.5 1151.94 404.5C1151.94 377.167 1157.27 353.167 1167.94 332.5C1178.94 311.5 1193.6 295.167 1211.94 283.5C1230.27 271.5 1250.6 265.5 1272.94 265.5C1287.27 265.5 1300.44 267.667 1312.44 272C1324.44 276.333 1334.77 281.833 1343.44 288.5C1352.44 295.167 1359.27 302 1363.94 309C1368.94 315.667 1371.44 321.333 1371.44 326L1353.44 332.5V296C1353.44 287.333 1356.27 280.167 1361.94 274.5C1367.6 268.5 1374.77 265.5 1383.44 265.5ZM1282.44 488C1297.1 488 1309.94 484.333 1320.94 477C1331.94 469.667 1340.44 459.667 1346.44 447C1352.77 434.333 1355.94 420.167 1355.94 404.5C1355.94 388.5 1352.77 374.167 1346.44 361.5C1340.44 348.833 1331.94 338.833 1320.94 331.5C1309.94 324.167 1297.1 320.5 1282.44 320.5C1268.1 320.5 1255.44 324.167 1244.44 331.5C1233.44 338.833 1224.77 348.833 1218.44 361.5C1212.44 374.167 1209.44 388.5 1209.44 404.5C1209.44 420.167 1212.44 434.333 1218.44 447C1224.77 459.667 1233.44 469.667 1244.44 477C1255.44 484.333 1268.1 488 1282.44 488ZM1462.9 496.5C1459.57 491.833 1458.07 485.833 1458.4 478.5C1458.74 471.167 1463.07 464.833 1471.4 459.5C1476.74 456.167 1482.4 454.833 1488.4 455.5C1494.4 455.833 1500.24 458.833 1505.9 464.5C1515.57 474.167 1525.74 481.667 1536.4 487C1547.07 492.333 1560.4 495 1576.4 495C1581.4 494.667 1586.9 494 1592.9 493C1598.9 491.667 1604.07 489 1608.4 485C1613.07 480.667 1615.4 474.167 1615.4 465.5C1615.4 458.167 1612.9 452.333 1607.9 448C1602.9 443.667 1596.24 440 1587.9 437C1579.9 434 1570.9 431.167 1560.9 428.5C1550.57 425.5 1539.9 422.167 1528.9 418.5C1518.24 414.833 1508.4 410.167 1499.4 404.5C1490.4 398.5 1483.07 390.667 1477.4 381C1471.74 371.333 1468.9 359.167 1468.9 344.5C1468.9 327.833 1473.57 313.667 1482.9 302C1492.24 290.333 1504.24 281.333 1518.9 275C1533.9 268.667 1549.57 265.5 1565.9 265.5C1576.24 265.5 1587.07 266.833 1598.4 269.5C1609.74 271.833 1620.57 275.833 1630.9 281.5C1641.24 286.833 1649.9 294 1656.9 303C1660.57 308 1662.74 314 1663.4 321C1664.07 328 1660.9 334.333 1653.9 340C1648.9 344 1643.07 345.833 1636.4 345.5C1629.74 344.833 1624.24 342.5 1619.9 338.5C1614.24 331.167 1606.57 325.333 1596.9 321C1587.57 316.667 1576.74 314.5 1564.4 314.5C1559.4 314.5 1553.9 315.167 1547.9 316.5C1542.24 317.5 1537.24 320 1532.9 324C1528.57 327.667 1526.4 333.667 1526.4 342C1526.4 349.667 1528.9 355.833 1533.9 360.5C1538.9 364.833 1545.57 368.5 1553.9 371.5C1562.57 374.167 1571.74 376.833 1581.4 379.5C1591.4 382.167 1601.57 385.333 1611.9 389C1622.24 392.667 1631.74 397.5 1640.4 403.5C1649.07 409.5 1656.07 417.333 1661.4 427C1666.74 436.333 1669.4 448.333 1669.4 463C1669.4 480 1664.4 494.5 1654.4 506.5C1644.4 518.5 1631.9 527.667 1616.9 534C1601.9 540 1586.57 543 1570.9 543C1551.24 543 1531.57 539.667 1511.9 533C1492.24 526 1475.9 513.833 1462.9 496.5ZM1776.11 507.5C1776.11 516.167 1773.28 523.5 1767.61 529.5C1761.95 535.167 1754.78 538 1746.11 538C1737.45 538 1730.28 535.167 1724.61 529.5C1718.95 523.5 1716.11 516.167 1716.11 507.5V301C1716.11 292.333 1718.95 285.167 1724.61 279.5C1730.28 273.5 1737.45 270.5 1746.11 270.5C1754.78 270.5 1761.95 273.5 1767.61 279.5C1773.28 285.167 1776.11 292.333 1776.11 301V507.5ZM1745.61 238C1734.28 238 1726.28 236.167 1721.61 232.5C1716.95 228.833 1714.61 222.333 1714.61 213V203.5C1714.61 193.833 1717.11 187.333 1722.11 184C1727.45 180.333 1735.45 178.5 1746.11 178.5C1757.78 178.5 1765.95 180.333 1770.61 184C1775.28 187.667 1777.61 194.167 1777.61 203.5V213C1777.61 222.667 1775.11 229.333 1770.11 233C1765.11 236.333 1756.95 238 1745.61 238ZM1843.28 270.5C1852.94 270.5 1861.11 274.667 1867.78 283L2034.78 490.5C2039.11 495.833 2041.28 501.833 2041.28 508.5C2041.28 516.833 2038.11 524 2031.78 530C2025.44 536 2018.44 539 2010.78 539C2001.11 539 1992.94 534.667 1986.28 526L1819.28 318.5C1814.94 313.167 1812.78 307.167 1812.78 300.5C1812.78 291.833 1815.78 284.667 1821.78 279C1828.11 273.333 1835.28 270.5 1843.28 270.5ZM1843.78 538.5C1837.11 538.5 1830.44 536 1823.78 531C1817.44 525.667 1814.28 519.333 1814.28 512C1814.28 505.333 1816.78 499 1821.78 493L1898.28 399.5L1928.28 449.5L1867.78 526C1861.44 534.333 1853.44 538.5 1843.78 538.5ZM2010.28 270.5C2018.28 270.5 2024.94 273.333 2030.28 279C2035.94 284.333 2038.78 290.5 2038.78 297.5C2038.78 300.833 2038.28 304.167 2037.28 307.5C2036.28 310.833 2034.44 314 2031.78 317L1956.28 409L1924.78 365.5L1986.28 284C1992.94 275 2000.94 270.5 2010.28 270.5Z" fill="url(#paint0_linear_1_4)"/>
<path d="M214.269 7.41734C224.76 -2.56313 241.036 -2.42641 251.527 7.55406C288.651 42.9642 323.488 81.1087 356.039 122.398C370.834 102.71 387.648 81.2455 405.806 63.7455C416.432 53.6283 432.842 53.6283 443.468 63.8822C490.007 108.999 529.418 168.609 557.126 225.21C584.431 280.992 602.589 338.003 602.589 378.199C602.589 552.652 468.352 700.035 301.295 700.035C132.354 700.035 0 552.515 0 378.062C0 325.562 23.9422 261.441 61.066 198.003C98.5933 133.609 151.589 66.4798 214.269 7.41734ZM303.581 568.785C337.611 568.785 367.741 559.214 396.122 540.074C452.749 499.878 467.948 419.488 433.918 356.324C430.152 348.667 426.386 341.011 420.736 333.355L352.676 413.745C352.676 413.745 243.188 272.105 235.521 262.535C179.028 333.355 150.647 373.55 150.647 419.488C150.647 513.277 218.708 568.785 303.581 568.785Z" fill="url(#paint1_linear_1_4)"/>
</g>
<defs>
<linearGradient id="paint0_linear_1_4" x1="2049" y1="38.0001" x2="671" y2="663" gradientUnits="userSpaceOnUse">
<stop stop-color="#002994"/>
<stop offset="1" stop-color="#00C2FF"/>
</linearGradient>
<linearGradient id="paint1_linear_1_4" x1="642.941" y1="0.034562" x2="-40.1536" y2="688.894" gradientUnits="userSpaceOnUse">
<stop stop-color="#002994"/>
<stop offset="1" stop-color="#00C2FF"/>
</linearGradient>
<clipPath id="clip0_1_4">
<rect width="2049" height="700" fill="white"/>
</clipPath>
</defs>
</svg>
