<svg width="300" height="320" viewBox="0 0 300 320" fill="none" xmlns="http://www.w3.org/2000/svg">
<g clip-path="url(#clip0_13_3)">
<path d="M270.105 19H30.105C13.5365 19 0.105011 32.4315 0.105011 49V289C0.105011 305.569 13.5365 319 30.105 319H270.105C286.674 319 300.105 305.569 300.105 289V49C300.105 32.4315 286.674 19 270.105 19Z" fill="#D8D8D8" stroke="black"/>
<path d="M30.105 19H270.105C278.062 19 285.692 22.1607 291.318 27.7868C296.944 33.4129 300.105 41.0435 300.105 49V94H0.105011V49C0.105011 41.0435 3.26572 33.4129 8.89181 27.7868C14.5179 22.1607 22.1485 19 30.105 19Z" fill="#FFC107" stroke="black"/>
<path d="M80.105 4H75.105V34H80.105V4Z" fill="#D8D8D8" stroke="black"/>
<path d="M230.105 4H225.105V34H230.105V4Z" fill="#D8D8D8" stroke="black"/>
<path d="M155.105 4H150.105V34H155.105V4Z" fill="#D8D8D8" stroke="black"/>
<path d="M212.187 298.438C212.187 305.479 211.727 312.355 210.849 319H78.447C77.569 312.355 77.109 305.479 77.109 298.438C77.109 241.376 107.347 195.118 144.648 195.118C181.949 195.118 212.187 241.376 212.187 298.438Z" fill="black" fill-opacity="0.22" stroke="black"/>
<path d="M186.143 311.127C186.143 260.111 213.253 218.755 246.695 218.755C249.04 218.755 251.354 218.958 253.63 219.354C275.287 225.325 292.937 248.867 300.009 279.954V268.788C300.041 268.885 300.073 268.983 300.105 269.08V280.379C300.073 280.237 300.041 280.096 300.009 279.954V289C300.009 305.569 286.578 319 270.009 319H186.36C186.216 316.405 186.143 313.779 186.143 311.127Z" fill="black" fill-opacity="0.22"/>
<path d="M300.009 279.954C292.937 248.867 275.287 225.325 253.63 219.354C251.354 218.958 249.04 218.755 246.695 218.755C213.253 218.755 186.143 260.111 186.143 311.127C186.143 313.779 186.216 316.405 186.36 319H270.009C286.578 319 300.009 305.569 300.009 289V279.954ZM300.009 279.954V268.788C300.041 268.885 300.073 268.983 300.105 269.08V280.379C300.073 280.237 300.041 280.096 300.009 279.954Z" stroke="black"/>
<path d="M42.871 240.508C72.387 240.508 96.35 275.576 96.645 319H26.614C11.639 317.318 0 304.613 0 289.189V271.944C0.422 271.119 0.854005 270.306 1.29601 269.507C11.159 251.802 26.121 240.508 42.871 240.508Z" fill="black" fill-opacity="0.22" stroke="black"/>
<path d="M41.322 235.346C57.8906 235.346 71.322 221.915 71.322 205.346C71.322 188.777 57.8906 175.346 41.322 175.346C24.7535 175.346 11.322 188.777 11.322 205.346C11.322 221.915 24.7535 235.346 41.322 235.346Z" fill="black" fill-opacity="0.22" stroke="black"/>
<path d="M245.638 205.652C262.207 205.652 275.638 192.221 275.638 175.652C275.638 159.083 262.207 145.652 245.638 145.652C229.069 145.652 215.638 159.083 215.638 175.652C215.638 192.221 229.069 205.652 245.638 205.652Z" fill="black" fill-opacity="0.22" stroke="black"/>
<path d="M143.165 183.21C159.734 183.21 173.165 169.779 173.165 153.21C173.165 136.641 159.734 123.21 143.165 123.21C126.596 123.21 113.165 136.641 113.165 153.21C113.165 169.779 126.596 183.21 143.165 183.21Z" fill="black" fill-opacity="0.22" stroke="black"/>
</g>
<defs>
<clipPath id="clip0_13_3">
<rect width="300" height="320" fill="white"/>
</clipPath>
</defs>
</svg>
