<?xml version="1.0" encoding="utf-8"?>
<!-- Generator: Adobe Illustrator 22.0.1, SVG Export Plug-In . SVG Version: 6.00 Build 0)  -->
<svg version="1.1" id="Слой_1" xmlns="http://www.w3.org/2000/svg" xmlns:xlink="http://www.w3.org/1999/xlink" x="0px" y="0px"
	 viewBox="0 0 229.8 183.9" style="enable-background:new 0 0 229.8 183.9;" xml:space="preserve">
<style type="text/css">
	.st0{fill:#1A1A1A;}
	.st1{fill:#333333;}
	.st2{fill:#212121;}
	.st3{fill:#FFFFFF;}
	.st4{fill:#B2DFDB;}
	.st5{fill:#F9F9F9;}
	.st6{fill:#90CAF9;}
	.st7{fill:#BBDEFB;}
	.st8{fill:#4D4D4D;}
	.st9{fill:#424242;}
	.st10{fill:#42A5F5;}
	.st11{fill:#64B5F6;}
	.st12{fill:#5C6BC0;}
	.st13{fill:#4DD0E1;}
	.st14{fill:#FF7043;}
	.st15{fill:#E3F2FD;}
	.st16{fill:#1E88E5;}
</style>
<g>
	<path class="st0" d="M64.1,183.9h101.6c0.6,0,1.2-0.5,1-1l-5-12.3c-0.2-0.5-2.3-1-2.9-1H70.9c-0.6,0-2.7,0.5-2.9,1l-5,12.3
		C62.9,183.4,63.6,183.9,64.1,183.9L64.1,183.9z"/>
	<path class="st1" d="M106.7,140.5h16.4v31.7c-5.2,2.1-10.5,2.5-16.4,0V140.5z"/>
	<path class="st2" d="M121.6,140.5h1.5V172c-0.3,0.4-0.9,0.9-1.5,0.9V140.5z"/>
	<path class="st3" d="M9.9,154.1h210c5.4,0,9.8-4.4,9.8-9.8V21.9c0-5.4-4.4-9.8-9.8-9.8H9.9c-5.4,0-9.8,4.4-9.8,9.8v122.3
		C0.1,149.6,4.5,154.1,9.9,154.1z"/>
	<rect x="4.2" y="3.9" class="st4" width="221.3" height="131.9"/>
	<rect x="23.7" y="7.4" class="st5" width="182.5" height="128.4"/>
	<rect x="61.6" y="7.4" class="st6" width="1.9" height="128.4"/>
	<rect x="167.5" y="7.4" class="st6" width="1.9" height="128.4"/>
	<path class="st7" d="M73.2,91.5h82.1c0.4,0,0.6,0.3,0.6,0.6v45.7c0,0.4-0.3,0.6-0.6,0.6H73.2c-0.4,0-0.6-0.3-0.6-0.6V92.2
		C72.6,91.8,72.8,91.5,73.2,91.5z"/>
	<path class="st8" d="M0,0v141.8h229.8V0H0z M5.4,7.4h218V134H5.4V7.4L5.4,7.4z"/>
	<path class="st9" d="M64.1,183.9h101.6c0.6,0,1.2-0.1,1-0.2l-5-2.6c-0.2-0.1-2.3-0.2-2.9-0.2H70.9c-0.6,0-2.7,0.1-2.9,0.2l-5,2.6
		C62.9,183.8,63.6,183.9,64.1,183.9L64.1,183.9z"/>
	<rect x="23.7" y="7.4" class="st10" width="182.5" height="24.1"/>
	<rect x="27.1" y="38.8" class="st7" width="31.3" height="12.7"/>
	<rect x="27.1" y="38.8" class="st11" width="31.3" height="5.3"/>
	<rect x="27.1" y="55.5" class="st7" width="31.3" height="15.4"/>
	<rect x="27.1" y="54.7" class="st11" width="31.3" height="5.3"/>
	<rect x="27.1" y="76.4" class="st7" width="31.3" height="22"/>
	<rect x="27.1" y="74.2" class="st11" width="31.3" height="5.3"/>
	<rect x="27.1" y="104.6" class="st7" width="31.3" height="22"/>
	<rect x="27.1" y="101.7" class="st11" width="31.3" height="5.3"/>
	<rect x="172" y="39.3" class="st7" width="31.4" height="24"/>
	<path class="st7" d="M73.2,38.6h82.1c0.4,0,0.6,0.3,0.6,0.6v45.7c0,0.4-0.3,0.6-0.6,0.6H73.2c-0.4,0-0.6-0.3-0.6-0.6V39.3
		C72.6,38.9,72.8,38.6,73.2,38.6z"/>
	<rect x="69" y="42.7" class="st11" width="79.5" height="8"/>
	<rect x="69" y="95.6" class="st11" width="79.5" height="8"/>
	<path class="st12" d="M158.4,39.6h2.5c0.5,0,0.8,0.4,0.8,0.8v2.4c0,0.5-0.4,0.8-0.8,0.8h-2.5c-0.5,0-0.8-0.4-0.8-0.8v-2.4
		C157.6,40,157.9,39.6,158.4,39.6z"/>
	<path class="st13" d="M158.4,44.8h2.5c0.5,0,0.8,0.4,0.8,0.8V48c0,0.5-0.4,0.8-0.8,0.8h-2.5c-0.5,0-0.8-0.4-0.8-0.8v-2.4
		C157.6,45.2,157.9,44.8,158.4,44.8z"/>
	<path class="st14" d="M158.4,49.7h2.5c0.5,0,0.8,0.4,0.8,0.8v2.4c0,0.5-0.4,0.8-0.8,0.8h-2.5c-0.5,0-0.8-0.4-0.8-0.8v-2.4
		C157.6,50.1,157.9,49.7,158.4,49.7z"/>
	<path class="st12" d="M158.4,93.2h2.5c0.5,0,0.8,0.4,0.8,0.8v2.4c0,0.5-0.4,0.8-0.8,0.8h-2.5c-0.5,0-0.8-0.4-0.8-0.8V94
		C157.6,93.6,157.9,93.2,158.4,93.2z"/>
	<path class="st13" d="M158.4,98.3h2.5c0.5,0,0.8,0.4,0.8,0.8v2.4c0,0.5-0.4,0.8-0.8,0.8h-2.5c-0.5,0-0.8-0.4-0.8-0.8v-2.4
		C157.6,98.7,157.9,98.3,158.4,98.3z"/>
	<path class="st14" d="M158.4,103.3h2.5c0.5,0,0.8,0.4,0.8,0.8v2.4c0,0.5-0.4,0.8-0.8,0.8h-2.5c-0.5,0-0.8-0.4-0.8-0.8v-2.4
		C157.6,103.7,157.9,103.3,158.4,103.3z"/>
	<path class="st11" d="M197.1,46.1l-12.9,7l-6-4l-6.3,4.7v9.4h31.4V50.8L197.1,46.1L197.1,46.1z"/>
	<rect x="76" y="55.3" class="st15" width="27.4" height="20.9"/>
	<path class="st11" d="M97.9,61.3l-11.2,6.1l-5.2-3.5L76,68v8.2h27.4V65.3L97.9,61.3L97.9,61.3z"/>
	<rect x="107" y="55.5" class="st11" width="45.5" height="2.6"/>
	<rect x="107" y="60.1" class="st11" width="45.5" height="2.6"/>
	<rect x="107" y="64.4" class="st11" width="45.5" height="2.6"/>
	<rect x="107" y="69" class="st11" width="33.5" height="2.6"/>
	<rect x="76" y="107.8" class="st15" width="27.4" height="20.9"/>
	<path class="st11" d="M97.9,113.8l-11.2,6.1l-5.2-3.5l-5.5,4.1v8.2h27.4v-10.9L97.9,113.8L97.9,113.8z"/>
	<rect x="107" y="108.1" class="st11" width="45.5" height="2.6"/>
	<rect x="107" y="112.7" class="st11" width="45.5" height="2.6"/>
	<rect x="107" y="117" class="st11" width="45.5" height="2.6"/>
	<rect x="107" y="121.5" class="st11" width="33.5" height="2.6"/>
	<rect x="172" y="67" class="st7" width="31.4" height="59.4"/>
	<rect x="172" y="67" class="st11" width="31.4" height="4.3"/>
	<rect x="172" y="67" class="st16" width="16.5" height="4.3"/>
	<rect x="173.6" y="73.1" class="st11" width="28.6" height="9.1"/>
	<rect x="174.9" y="74.7" class="st10" width="10.3" height="6.4"/>
	<path class="st7" d="M183.1,76.5l-4.2,1.9l-2-1.1l-2.1,1.3v2.5h10.3v-3.3L183.1,76.5L183.1,76.5z"/>
	<rect x="187" y="74.6" class="st10" width="13.9" height="1.8"/>
	<rect x="187" y="77.2" class="st10" width="11.5" height="1.8"/>
	<rect x="173.6" y="84.6" class="st11" width="28.6" height="9.1"/>
	<rect x="174.9" y="86.1" class="st10" width="10.3" height="6.4"/>
	<path class="st7" d="M183.1,88l-4.2,1.9l-2-1.1l-2.1,1.3v2.5h10.3v-3.3L183.1,88L183.1,88z"/>
	<rect x="187" y="86" class="st10" width="13.9" height="1.8"/>
	<rect x="187" y="88.7" class="st10" width="11.5" height="1.8"/>
	<rect x="173.6" y="95.7" class="st11" width="28.6" height="9.1"/>
	<rect x="174.9" y="97.3" class="st10" width="10.3" height="6.4"/>
	<path class="st7" d="M183.1,99.1l-4.2,1.9l-2-1.1l-2.1,1.3v2.5h10.3v-3.3L183.1,99.1L183.1,99.1z"/>
	<rect x="187" y="97.2" class="st10" width="13.9" height="1.8"/>
	<rect x="187" y="99.8" class="st10" width="11.5" height="1.8"/>
	<rect x="173.6" y="107.4" class="st11" width="28.6" height="9.1"/>
	<rect x="174.9" y="109" class="st10" width="10.3" height="6.4"/>
	<path class="st7" d="M183.1,110.8l-4.2,1.9l-2-1.1l-2.1,1.3v2.5h10.3v-3.3L183.1,110.8L183.1,110.8z"/>
	<rect x="187" y="108.9" class="st10" width="13.9" height="1.8"/>
	<rect x="187" y="111.5" class="st10" width="11.5" height="1.8"/>
</g>
</svg>
