<svg width="56" height="42" viewBox="0 0 56 42" fill="none" xmlns="http://www.w3.org/2000/svg">
<path d="M47.1748 3.54712C47.1594 3.51743 47.1341 3.49417 47.1031 3.48149C43.5291 1.84168 39.7574 0.672362 35.8826 0.00280712C35.8474 -0.00373765 35.811 0.000983826 35.7786 0.0163001C35.7463 0.0316163 35.7196 0.0567475 35.7023 0.0881196C35.1887 1.02027 34.7225 1.97773 34.3054 2.95687C30.1285 2.32282 25.8799 2.32282 21.703 2.95687C21.2831 1.97525 20.8095 1.01754 20.2841 0.0881196C20.2661 0.0574293 20.2392 0.0328769 20.207 0.0176601C20.1749 0.00244338 20.1389 -0.00273241 20.1037 0.00280712C16.2284 0.670957 12.4565 1.84036 8.88296 3.48159C8.85236 3.49456 8.82655 3.5167 8.80908 3.54496C1.66261 14.2173 -0.295076 24.6272 0.665299 34.9082C0.668001 34.9334 0.675743 34.9578 0.688063 34.9799C0.700384 35.0021 0.717032 35.0215 0.737018 35.0371C4.89834 38.1182 9.55283 40.4701 14.5019 41.9923C14.5367 42.0028 14.5739 42.0023 14.6085 41.991C14.6431 41.9796 14.6734 41.958 14.6953 41.9289C15.7582 40.4826 16.7001 38.9511 17.5112 37.35C17.5224 37.328 17.5287 37.3039 17.5299 37.2793C17.5311 37.2547 17.527 37.2301 17.518 37.2072C17.509 37.1843 17.4952 37.1635 17.4775 37.1463C17.4599 37.1291 17.4388 37.1158 17.4157 37.1074C15.9305 36.5391 14.4926 35.854 13.1156 35.0586C13.0906 35.0439 13.0696 35.0233 13.0544 34.9986C13.0393 34.9738 13.0304 34.9457 13.0287 34.9167C13.027 34.8878 13.0325 34.8588 13.0446 34.8325C13.0567 34.8061 13.0751 34.7831 13.0982 34.7656C13.3872 34.5491 13.6763 34.3239 13.9522 34.0965C13.9767 34.0763 14.0064 34.0634 14.0379 34.0591C14.0693 34.0549 14.1014 34.0595 14.1303 34.0725C23.1518 38.1897 32.9188 38.1897 41.8335 34.0725C41.8625 34.0587 41.8949 34.0534 41.9268 34.0573C41.9587 34.0611 41.9889 34.074 42.0138 34.0943C42.2898 34.3218 42.5789 34.5491 42.87 34.7656C42.8932 34.783 42.9118 34.8058 42.9241 34.832C42.9364 34.8583 42.9421 34.8872 42.9406 34.9162C42.9391 34.9451 42.9304 34.9733 42.9155 34.9981C42.9005 35.023 42.8797 35.0438 42.8548 35.0586C41.4809 35.8607 40.0417 36.5453 38.5526 37.1052C38.5295 37.114 38.5085 37.1276 38.4909 37.1451C38.4734 37.1625 38.4598 37.1835 38.4509 37.2066C38.4421 37.2297 38.4382 37.2544 38.4396 37.2792C38.4409 37.3039 38.4475 37.328 38.4588 37.35C39.2836 38.9422 40.224 40.4718 41.2726 41.9264C41.2939 41.9562 41.3241 41.9786 41.3588 41.9904C41.3935 42.0022 41.431 42.0027 41.466 41.992C46.4239 40.475 51.0866 38.1229 55.2531 35.0371C55.2734 35.0223 55.2903 35.0033 55.3027 34.9815C55.315 34.9596 55.3226 34.9354 55.3248 34.9103C56.4746 23.0244 53.4 12.6998 47.1748 3.54712ZM18.8585 28.6481C16.1424 28.6481 13.9044 26.1556 13.9044 23.0945C13.9044 20.0333 16.099 17.5406 18.8585 17.5406C21.6396 17.5406 23.856 20.055 23.8126 23.0943C23.8126 26.1556 21.6179 28.6481 18.8585 28.6481ZM37.1754 28.6481C34.4594 28.6481 32.2214 26.1556 32.2214 23.0945C32.2214 20.0333 34.416 17.5406 37.1754 17.5406C39.9567 17.5406 42.1729 20.055 42.1295 23.0943C42.1295 26.1556 39.9567 28.6481 37.1754 28.6481Z" fill="#0064FB"/>
</svg>
