<svg width="44" height="50" viewBox="0 0 44 50" fill="none" xmlns="http://www.w3.org/2000/svg">
<path d="M44 20.499C39.6761 20.5093 35.4582 19.1685 31.9422 16.666V34.1191C31.941 37.3517 30.9474 40.5068 29.0941 43.1626C27.2408 45.8184 24.6163 47.8483 21.5714 48.981C18.5265 50.1136 15.2064 50.295 12.0551 49.5008C8.90376 48.7066 6.07138 46.9747 3.93669 44.5367C1.802 42.0987 0.466746 39.0708 0.10947 35.8578C-0.247805 32.6449 0.389928 29.4001 1.9374 26.5573C3.48486 23.7145 5.8683 21.4091 8.76902 19.9496C11.6697 18.49 14.9495 17.9458 18.1696 18.3896V27.168C16.6961 26.7071 15.1137 26.721 13.6486 27.2076C12.1834 27.6943 10.9104 28.6288 10.0113 29.8778C9.11214 31.1268 8.63291 32.6263 8.642 34.1622C8.6511 35.6982 9.14807 37.192 10.0619 38.4303C10.9758 39.6687 12.2598 40.5882 13.7306 41.0577C15.2014 41.5272 16.7838 41.5225 18.2518 41.0444C19.7198 40.5663 20.9984 39.6392 21.9049 38.3955C22.8113 37.1518 23.2994 35.6551 23.2994 34.1191V0H31.9422C31.9362 0.725723 31.9974 1.45046 32.1249 2.16504C32.4252 3.76023 33.0497 5.27774 33.9601 6.62474C34.8705 7.97174 36.0477 9.11991 37.4196 9.99902C39.3715 11.2823 41.66 11.9663 44 11.9658V20.499Z" fill="#0064FB"/>
</svg>
