<svg width="68" height="48" viewBox="0 0 68 48" fill="none" xmlns="http://www.w3.org/2000/svg">
<path d="M65.9119 7.39303C65.1377 4.48297 62.8566 2.1911 59.9602 1.41332C54.7104 0 33.6593 0 33.6593 0C33.6593 0 12.6083 0 7.35836 1.41332C4.46203 2.19122 2.18091 4.48297 1.40669 7.39303C0 12.6677 0 23.6727 0 23.6727C0 23.6727 0 34.6778 1.40669 39.9525C2.18091 42.8625 4.46203 45.0589 7.35836 45.8367C12.6083 47.25 33.6593 47.25 33.6593 47.25C33.6593 47.25 54.7103 47.25 59.9602 45.8367C62.8566 45.0589 65.1377 42.8625 65.9119 39.9525C67.3186 34.6778 67.3186 23.6727 67.3186 23.6727C67.3186 23.6727 67.3186 12.6677 65.9119 7.39303ZM26.7744 33.6645V13.681L44.369 23.673L26.7744 33.6645Z" fill="#0064FB"/>
</svg>
