<svg width="26" height="26" viewBox="0 0 26 26" fill="none" xmlns="http://www.w3.org/2000/svg">
<path d="M9.513 1.0759C9.64002 1.20289 9.72645 1.36476 9.7613 1.54096C9.79616 1.71716 9.77786 1.89974 9.70875 2.06553C9.15633 3.39133 8.87292 4.8137 8.875 6.24999C8.875 9.13422 10.0208 11.9003 12.0602 13.9398C14.0997 15.9792 16.8658 17.125 19.75 17.125C21.1863 17.1271 22.6087 16.8437 23.9345 16.2912C24.1001 16.2222 24.2825 16.204 24.4586 16.2388C24.6347 16.2736 24.7964 16.3599 24.9234 16.4867C25.0503 16.6135 25.1368 16.7752 25.1718 16.9512C25.2067 17.1272 25.1887 17.3097 25.1198 17.4754C24.1556 19.7872 22.5288 21.7621 20.4444 23.1511C18.36 24.5402 15.9111 25.2813 13.4063 25.2812C6.39913 25.2812 0.71875 19.6009 0.71875 12.5937C0.71875 7.31574 3.94138 2.79174 8.52458 0.880153C8.69021 0.811301 8.87255 0.79315 9.0485 0.827996C9.22446 0.862843 9.38611 0.94912 9.513 1.0759Z" fill="white" fill-opacity="0.8"/>
</svg>
