<svg width="41" height="41" viewBox="0 0 41 41" fill="none" xmlns="http://www.w3.org/2000/svg">
<path d="M20.5 0.100006C21.1763 0.100006 21.8249 0.368666 22.3031 0.846884C22.7813 1.3251 23.05 1.9737 23.05 2.65001V5.20001C23.05 5.87631 22.7813 6.52491 22.3031 7.00313C21.8249 7.48135 21.1763 7.75001 20.5 7.75001C19.8237 7.75001 19.1751 7.48135 18.6969 7.00313C18.2186 6.52491 17.95 5.87631 17.95 5.20001V2.65001C17.95 1.9737 18.2186 1.3251 18.6969 0.846884C19.1751 0.368666 19.8237 0.100006 20.5 0.100006ZM30.7 20.5C30.7 23.2052 29.6253 25.7996 27.7125 27.7125C25.7996 29.6254 23.2052 30.7 20.5 30.7C17.7948 30.7 15.2004 29.6254 13.2875 27.7125C11.3746 25.7996 10.3 23.2052 10.3 20.5C10.3 17.7948 11.3746 15.2004 13.2875 13.2875C15.2004 11.3746 17.7948 10.3 20.5 10.3C23.2052 10.3 25.7996 11.3746 27.7125 13.2875C29.6253 15.2004 30.7 17.7948 30.7 20.5ZM29.5168 33.1225L31.3196 34.9254C31.8006 35.3899 32.4447 35.6469 33.1133 35.6411C33.7819 35.6353 34.4215 35.3671 34.8943 34.8943C35.3671 34.4215 35.6352 33.7819 35.641 33.1133C35.6469 32.4447 35.3898 31.8006 34.9253 31.3197L33.1225 29.5168C32.6415 29.0523 31.9974 28.7953 31.3288 28.8011C30.6602 28.8069 30.0206 29.0751 29.5478 29.5479C29.075 30.0207 28.8069 30.6602 28.8011 31.3288C28.7952 31.9974 29.0523 32.6416 29.5168 33.1225ZM34.9228 6.07466C35.4008 6.55285 35.6694 7.20134 35.6694 7.87751C35.6694 8.55368 35.4008 9.20216 34.9228 9.68036L33.1225 11.4832C32.8872 11.7268 32.6059 11.921 32.2948 12.0547C31.9836 12.1883 31.649 12.2587 31.3104 12.2616C30.9719 12.2645 30.6361 12.2 30.3227 12.0718C30.0093 11.9436 29.7246 11.7542 29.4852 11.5148C29.2457 11.2754 29.0564 10.9907 28.9282 10.6773C28.8 10.3639 28.7354 10.0281 28.7384 9.68953C28.7413 9.35095 28.8117 9.01634 28.9453 8.70522C29.079 8.39411 29.2732 8.11274 29.5168 7.87751L31.3196 6.07466C31.7978 5.5966 32.4463 5.32805 33.1225 5.32805C33.7986 5.32805 34.4446 5.5966 34.9228 6.07466ZM38.35 23.05C39.0263 23.05 39.6749 22.7813 40.1531 22.3031C40.6313 21.8249 40.9 21.1763 40.9 20.5C40.9 19.8237 40.6313 19.1751 40.1531 18.6969C39.6749 18.2187 39.0263 17.95 38.35 17.95H35.8C35.1237 17.95 34.4751 18.2187 33.9969 18.6969C33.5186 19.1751 33.25 19.8237 33.25 20.5C33.25 21.1763 33.5186 21.8249 33.9969 22.3031C34.4751 22.7813 35.1237 23.05 35.8 23.05H38.35ZM20.5 33.25C21.1763 33.25 21.8249 33.5187 22.3031 33.9969C22.7813 34.4751 23.05 35.1237 23.05 35.8V38.35C23.05 39.0263 22.7813 39.6749 22.3031 40.1531C21.8249 40.6313 21.1763 40.9 20.5 40.9C19.8237 40.9 19.1751 40.6313 18.6969 40.1531C18.2186 39.6749 17.95 39.0263 17.95 38.35V35.8C17.95 35.1237 18.2186 34.4751 18.6969 33.9969C19.1751 33.5187 19.8237 33.25 20.5 33.25ZM7.87748 11.4832C8.11423 11.7201 8.39533 11.9081 8.70473 12.0364C9.01413 12.1647 9.34576 12.2308 9.6807 12.2309C10.0156 12.231 10.3473 12.1651 10.6568 12.0371C10.9663 11.909 11.2475 11.7212 11.4845 11.4845C11.7214 11.2477 11.9093 10.9666 12.0376 10.6572C12.1659 10.3478 12.232 10.0162 12.2321 9.68126C12.2322 9.34632 12.1664 9.01464 12.0383 8.70515C11.9102 8.39566 11.7225 8.11443 11.4857 7.87751L9.68033 6.07466C9.19939 5.61015 8.55525 5.35313 7.88665 5.35894C7.21805 5.36475 6.57848 5.63293 6.10569 6.10572C5.6329 6.57851 5.36472 7.21808 5.35891 7.88668C5.3531 8.55528 5.61012 9.19942 6.07463 9.68036L7.87748 11.4832ZM11.4832 33.1225L9.68033 34.9254C9.19939 35.3899 8.55525 35.6469 7.88665 35.6411C7.21805 35.6353 6.57848 35.3671 6.10569 34.8943C5.6329 34.4215 5.36472 33.7819 5.35891 33.1133C5.3531 32.4447 5.61012 31.8006 6.07463 31.3197L7.87748 29.5168C8.35841 29.0523 9.00255 28.7953 9.67115 28.8011C10.3398 28.8069 10.9793 29.0751 11.4521 29.5479C11.9249 30.0207 12.1931 30.6602 12.1989 31.3288C12.2047 31.9974 11.9477 32.6416 11.4832 33.1225ZM5.19998 23.05C5.87628 23.05 6.52488 22.7813 7.0031 22.3031C7.48132 21.8249 7.74998 21.1763 7.74998 20.5C7.74998 19.8237 7.48132 19.1751 7.0031 18.6969C6.52488 18.2187 5.87628 17.95 5.19998 17.95H2.64998C1.97367 17.95 1.32507 18.2187 0.846853 18.6969C0.368635 19.1751 0.0999756 19.8237 0.0999756 20.5C0.0999756 21.1763 0.368635 21.8249 0.846853 22.3031C1.32507 22.7813 1.97367 23.05 2.64998 23.05H5.19998Z" fill="white" fill-opacity="0.8"/>
</svg>
