<svg width="670" height="716" viewBox="0 0 670 716" fill="none" xmlns="http://www.w3.org/2000/svg">
<path opacity="0.15" d="M98.506 520.604C152.909 520.604 197.012 493.977 197.012 461.133C197.012 428.288 152.909 401.662 98.506 401.662C44.1027 401.662 0 428.288 0 461.133C0 493.977 44.1027 520.604 98.506 520.604Z" fill="#D6D8E5"/>
<path opacity="0.5" d="M97.3694 487.94C127.714 487.94 152.313 473.091 152.313 454.775C152.313 436.458 127.714 421.609 97.3694 421.609C67.0251 421.609 42.4262 436.458 42.4262 454.775C42.4262 473.091 67.0251 487.94 97.3694 487.94Z" fill="#EDEFF9"/>
<path d="M96.849 452.469C105.502 452.469 112.516 448.231 112.516 443.004C112.516 437.776 105.502 433.538 96.849 433.538C88.1965 433.538 81.1822 437.776 81.1822 443.004C81.1822 448.231 88.1965 452.469 96.849 452.469Z" fill="#EDEFF9"/>
<path d="M112.434 317.517H82.3052V441.328H112.434V317.517Z" fill="#EDEFF9"/>
<path d="M80.8673 316.114C80.8673 316.114 81.689 341.575 99.0128 387.241C99.0128 387.241 115.145 350.468 116.816 315.341C118.487 280.214 80.8673 316.114 80.8673 316.114Z" fill="#FFBC00"/>
<path d="M59.7089 220.256L19.6245 261.039L14.8588 314.295L63.338 288.877L72.1574 223.922L59.7089 220.256Z" fill="#3A9DFC"/>
<path d="M138.317 220.256L178.387 261.039L183.167 314.295L134.509 287.116L125.868 223.922L138.317 220.256Z" fill="#3A9DFC"/>
<path d="M98.5061 322.544C109.511 322.544 118.432 317.158 118.432 310.515C118.432 303.872 109.511 298.486 98.5061 298.486C87.5013 298.486 78.5803 303.872 78.5803 310.515C78.5803 317.158 87.5013 322.544 98.5061 322.544Z" fill="#424956"/>
<path d="M68.2955 298.486V287.66H128.648V298.887L68.2955 298.486Z" fill="#494949"/>
<path d="M98.506 316.715C115.191 316.715 128.717 308.547 128.717 298.472C128.717 288.396 115.191 280.228 98.506 280.228C81.8212 280.228 68.2955 288.396 68.2955 298.472C68.2955 308.547 81.8212 316.715 98.506 316.715Z" fill="#2B303F"/>
<path d="M98.4102 304.3C118.771 304.3 135.276 294.337 135.276 282.047C135.276 269.757 118.771 259.793 98.4102 259.793C78.0496 259.793 61.544 269.757 61.544 282.047C61.544 294.337 78.0496 304.3 98.4102 304.3Z" fill="#EDEFF9"/>
<path d="M138.221 242.409C138.221 244.199 138.221 245.96 138.221 247.664C138.221 249.096 138.221 250.528 138.221 251.96C138.221 253.894 138.125 255.741 138.056 257.545C138.056 259.793 137.906 261.927 137.796 263.975C137.687 266.023 137.591 268.027 137.454 269.875C136.892 277.965 136.906 283.923 135.947 286.257C130.73 299.016 113.077 291.985 104.367 287.402C101.149 285.713 99.0264 284.324 99.0264 284.324H98.2322C98.2322 284.324 95.7123 285.756 91.9874 287.302C82.853 291.169 66.57 298.028 62.0507 286.214C61.2427 284.094 60.4348 277.092 59.9417 269.76C59.8185 267.927 59.7089 265.965 59.5994 263.875C59.4898 261.784 59.435 259.707 59.3529 257.459C59.3529 255.669 59.257 253.822 59.2159 251.903C59.2159 250.471 59.2159 249.039 59.2159 247.607V242.352C58.9694 192.389 64.0365 112.498 80.7714 78.402C85.6056 68.5355 91.4122 62.5068 98.3554 62.1488H99.1497C105.997 62.5211 111.872 68.5212 116.72 78.3447C133.222 112.312 138.522 191.888 138.221 242.409Z" fill="#EDEFF9"/>
<path d="M98.6019 195.296C106.294 195.296 112.529 188.776 112.529 180.733C112.529 172.69 106.294 166.169 98.6019 166.169C90.91 166.169 84.6744 172.69 84.6744 180.733C84.6744 188.776 90.91 195.296 98.6019 195.296Z" fill="#2B303F"/>
<path d="M98.6019 197.43C95.4437 197.43 92.3565 196.451 89.7305 194.616C87.1046 192.781 85.058 190.173 83.8494 187.122C82.6408 184.071 82.3246 180.714 82.9407 177.475C83.5568 174.236 85.0776 171.261 87.3108 168.926C89.544 166.591 92.3892 165.001 95.4867 164.356C98.5842 163.712 101.795 164.043 104.713 165.307C107.63 166.57 110.124 168.71 111.879 171.456C113.633 174.202 114.57 177.43 114.57 180.733C114.566 185.16 112.883 189.405 109.889 192.535C106.895 195.666 102.836 197.426 98.6019 197.43ZM98.6019 168.303C96.2503 168.3 93.9507 169.027 91.9941 170.391C90.0375 171.755 88.5118 173.695 87.61 175.966C86.7082 178.237 86.4708 180.737 86.9279 183.149C87.3851 185.561 88.5161 187.777 90.178 189.517C91.8399 191.257 93.9579 192.442 96.2641 192.923C98.5704 193.403 100.961 193.158 103.134 192.218C105.307 191.277 107.164 189.684 108.471 187.64C109.778 185.595 110.475 183.192 110.475 180.733C110.472 177.44 109.22 174.283 106.994 171.953C104.769 169.623 101.751 168.311 98.6019 168.303Z" fill="#424956"/>
<path d="M98.6019 152.479C106.294 152.479 112.529 145.959 112.529 137.916C112.529 129.873 106.294 123.352 98.6019 123.352C90.91 123.352 84.6744 129.873 84.6744 137.916C84.6744 145.959 90.91 152.479 98.6019 152.479Z" fill="#2B303F"/>
<path d="M98.6019 154.656C95.4416 154.659 92.3515 153.682 89.7221 151.849C87.0927 150.015 85.0421 147.408 83.8296 144.356C82.6171 141.305 82.2971 137.945 82.9099 134.704C83.5228 131.462 85.0412 128.483 87.273 126.143C89.5047 123.803 92.3498 122.208 95.4485 121.559C98.5473 120.91 101.76 121.236 104.682 122.496C107.604 123.756 110.102 125.893 111.862 128.638C113.622 131.383 114.565 134.611 114.57 137.916C114.574 142.349 112.894 146.603 109.9 149.742C106.905 152.881 102.842 154.648 98.6019 154.656ZM98.6019 125.529C96.2497 125.526 93.9496 126.253 91.9927 127.618C90.0358 128.983 88.5101 130.924 87.6087 133.196C86.7073 135.467 86.4707 137.968 86.929 140.38C87.3872 142.793 88.5196 145.009 90.1828 146.748C91.8461 148.487 93.9654 149.671 96.2725 150.15C98.5797 150.63 100.971 150.382 103.144 149.44C105.316 148.497 107.173 146.902 108.478 144.856C109.783 142.809 110.478 140.404 110.475 137.945C110.477 136.312 110.171 134.696 109.576 133.187C108.98 131.678 108.106 130.307 107.003 129.151C105.901 127.996 104.591 127.078 103.15 126.452C101.708 125.826 100.163 125.502 98.6019 125.5V125.529Z" fill="#424956"/>
<path d="M138.221 271.206C138.221 272.996 138.221 274.758 138.221 276.476C136.851 281.202 133.126 285.727 127.073 289.364C111.379 298.83 85.9891 298.83 70.2265 289.364C64.1734 285.698 60.4621 281.159 59.079 276.476V271.221C60.4485 276.032 64.146 280.615 70.2813 284.324C85.9891 293.789 111.434 293.789 127.128 284.324C133.14 280.572 136.947 276.004 138.221 271.206Z" fill="#3A9DFC"/>
<path d="M138.097 279.541C138.097 281.46 138.002 283.321 137.933 285.111C136.399 289.579 132.757 293.832 126.977 297.298C111.283 306.777 85.8932 306.777 70.1306 297.298C64.3651 293.803 60.7223 289.522 59.1748 285.025C59.1748 283.235 59.079 281.388 59.0379 279.483C60.4074 284.152 64.146 288.591 70.1169 292.2C85.8248 301.679 111.27 301.679 126.964 292.2C132.962 288.605 136.66 284.18 138.097 279.541Z" fill="#3A9DFC"/>
<path d="M137.673 264.748C136.016 268.944 132.455 272.939 127.018 276.204C111.324 285.67 85.9343 285.67 70.1717 276.204C64.6938 272.882 61.1332 268.872 59.4761 264.634C59.5857 266.724 59.6952 268.686 59.8185 270.519C61.5851 274.471 65.0362 278.195 70.1717 281.302C76.87 285.119 84.2604 287.421 91.8641 288.061C95.9615 288.478 100.086 288.511 104.189 288.161C112.167 287.634 119.94 285.293 126.964 281.302C132.058 278.223 135.495 274.543 137.276 270.634L137.673 264.748Z" fill="#3A9DFC"/>
<path d="M116.474 78.3733C104.76 82.1327 92.2381 82.1327 80.5249 78.3733C85.3591 68.5069 91.1657 62.4781 98.1089 62.1201H98.9032C105.819 62.5497 111.626 68.5498 116.474 78.3733Z" fill="#3A9DFC"/>
<path d="M102.423 220.37H95.5891V314.181H102.423V220.37Z" fill="#3A9DFC"/>
<path opacity="0.4" d="M426.453 547.282L347.024 499.324C341.286 495.859 342.012 489.816 348.626 485.82L400.091 454.76L500.268 515.234L448.803 546.308C442.175 550.303 432.178 550.733 426.453 547.282Z" fill="#D6D8E5"/>
<path d="M432.246 543.716L352.817 495.744C347.092 492.293 347.805 486.25 354.419 482.255L405.898 451.195L506.074 511.668L454.664 542.728C447.981 546.738 437.971 547.167 432.246 543.716Z" fill="#B1B4C4"/>
<path d="M506.061 511.668V508.503L501.432 511.296L506.061 511.668Z" fill="#B1B4C4"/>
<path d="M348.941 490.03V486.808L353.693 488.87L348.941 490.03Z" fill="#B1B4C4"/>
<path d="M432.246 540.537L352.817 492.579C347.092 489.114 347.805 483.085 354.419 479.09L405.898 448.015L506.074 508.503L454.664 539.563C447.981 543.559 437.971 544.002 432.246 540.537Z" fill="#D6D8E5"/>
<path d="M406.144 448.159L393.75 405.141L495.023 465.887L506.061 508.503L406.144 448.159Z" fill="#9EA1AF"/>
<path d="M503.13 510.265L506.061 508.503L501.692 504.852L503.13 510.265Z" fill="#9EA1AF"/>
<path d="M402.953 449.777L390.559 406.76L491.832 467.505L503.116 510.265L402.953 449.777Z" fill="#B1B4C4"/>
<path d="M660.085 582.824L268.019 346.1C262.541 342.778 258.063 333.871 258.063 326.21V9.12184C258.063 1.44632 262.528 -2.0764 268.019 1.24584L660.085 237.912C665.563 241.235 670.041 250.142 670.041 257.803V574.891C670 582.552 665.563 586.075 660.085 582.824Z" fill="#C4C7D6"/>
<path d="M662.057 586.032L666.398 583.411L664.522 569.95L662.057 586.032Z" fill="#C4C7D6"/>
<path d="M257.365 3.20767L261.637 0.615753L267.786 4.29599C267.786 4.29599 261.24 5.34135 261.076 5.29839C260.912 5.25543 257.365 3.20767 257.365 3.20767Z" fill="#B1B4C4"/>
<path d="M656.442 584.929L264.431 348.262C258.953 344.94 254.475 336.047 254.475 328.372V11.2842C254.475 3.62295 258.926 0.100233 264.431 3.42247L656.442 240.089C661.92 243.411 666.398 252.318 666.398 259.98V577.096C666.398 584.729 661.948 588.251 656.442 584.929Z" fill="#E4E7F2"/>
<path d="M655.758 585.344L263.733 348.678C258.255 345.355 253.777 336.448 253.777 328.787V11.6994C253.777 4.03824 258.241 0.515516 263.733 3.83776L655.758 240.576C661.235 243.884 665.714 252.791 665.714 260.466V577.468C665.714 585.144 661.249 588.667 655.758 585.344Z" fill="#D6D8E5"/>
<path d="M660.318 566.055L258.83 323.632L258.967 12.9739C258.967 9.79489 261.103 8.50609 263.733 10.1099L655.757 246.762C657.139 247.705 658.29 248.973 659.118 250.465C659.946 251.958 660.427 253.632 660.523 255.354L660.318 566.055Z" fill="white"/>
<path d="M417.305 146.179L288.685 68.5355C288.091 68.0881 287.606 67.5014 287.268 66.8224C286.93 66.1435 286.749 65.3913 286.74 64.6261V55.2465C286.74 53.8145 287.603 53.0556 288.685 53.7L417.305 131.343C417.897 131.793 418.38 132.38 418.717 133.058C419.055 133.737 419.237 134.488 419.25 135.252V144.632C419.25 146.136 418.373 146.837 417.305 146.179Z" fill="#E9EAF2"/>
<path d="M384.274 148.427L289.273 91.0752C288.677 90.6323 288.19 90.0489 287.849 89.3722C287.509 88.6955 287.326 87.9446 287.315 87.1802V82.5118C287.315 81.0798 288.191 80.3066 289.273 80.9653L384.274 138.317C384.861 138.765 385.34 139.351 385.673 140.027C386.006 140.703 386.183 141.451 386.191 142.212V146.88C386.191 148.384 385.342 149.086 384.274 148.427Z" fill="#E9EAF2"/>
<path d="M384.274 166.112L289.273 108.832C288.677 108.389 288.19 107.806 287.849 107.129C287.509 106.452 287.326 105.701 287.315 104.937V100.24C287.315 98.808 288.191 98.0347 289.273 98.6934L384.274 156.088C384.866 156.533 385.351 157.117 385.689 157.794C386.026 158.47 386.208 159.22 386.218 159.983V164.651C386.191 166.112 385.342 166.785 384.274 166.112Z" fill="#E9EAF2"/>
<path d="M366.347 173.014L289.273 126.474C288.677 126.031 288.19 125.448 287.849 124.771C287.509 124.095 287.326 123.344 287.315 122.579V117.911C287.315 116.479 288.191 115.706 289.273 116.364L366.347 162.89C366.943 163.337 367.43 163.923 367.77 164.602C368.11 165.281 368.293 166.033 368.306 166.799V171.468C368.306 172.971 367.429 173.659 366.347 173.014Z" fill="#3A9DFC"/>
<path d="M417.305 331.995L288.685 254.352C288.091 253.904 287.606 253.318 287.268 252.639C286.93 251.96 286.749 251.208 286.74 250.442V241.063C286.74 239.559 287.603 238.872 288.685 239.516L417.305 317.159C417.897 317.609 418.38 318.196 418.717 318.875C419.055 319.553 419.237 320.304 419.25 321.069V330.448C419.25 331.952 418.373 332.639 417.305 331.995Z" fill="#E9EAF2"/>
<path d="M384.274 334.243L289.273 276.963C288.678 276.516 288.191 275.93 287.851 275.251C287.511 274.573 287.327 273.82 287.315 273.054V268.385C287.315 266.882 288.191 266.194 289.273 266.853L384.274 324.133C384.865 324.583 385.348 325.17 385.686 325.849C386.023 326.527 386.206 327.278 386.218 328.043V332.711C386.191 334.2 385.342 334.888 384.274 334.243Z" fill="#E9EAF2"/>
<path d="M384.274 351.943L289.273 294.591C288.679 294.147 288.192 293.563 287.852 292.886C287.512 292.21 287.328 291.46 287.315 290.696V286.028C287.315 284.596 288.191 283.837 289.273 284.495L384.274 341.775C384.865 342.225 385.348 342.812 385.686 343.491C386.023 344.169 386.206 344.92 386.218 345.685V350.353C386.191 351.9 385.342 352.587 384.274 351.943Z" fill="#E9EAF2"/>
<path d="M366.347 358.816L289.273 312.291C288.677 311.845 288.189 311.259 287.849 310.58C287.509 309.901 287.326 309.148 287.315 308.381V303.713C287.315 302.209 288.191 301.522 289.273 302.181L366.347 348.706C366.943 349.153 367.43 349.739 367.77 350.418C368.11 351.097 368.293 351.85 368.306 352.616V357.284C368.306 358.788 367.429 359.432 366.347 358.816Z" fill="#3A9DFC"/>
<path d="M451.72 355.05C451.72 355.05 465.908 367.508 486.395 350.496C501.021 337.952 514.099 345.112 521.385 349.408C528.671 353.704 539.188 356.339 559.224 394.172C559.224 394.172 565.742 406.029 576.506 412.531C587.27 419.032 592.447 415.853 600.91 402.507C609.374 389.16 614.92 374.382 630.477 384.034V518.198L450.323 409.552V354.177L451.72 355.05Z" fill="#F5F6FF"/>
<path d="M412.567 298.171L289.314 223.707C288.719 223.26 288.232 222.674 287.892 221.995C287.552 221.316 287.368 220.564 287.356 219.798V145.434C287.356 144.002 288.233 143.243 289.314 143.887L412.567 218.351C413.162 218.798 413.65 219.384 413.99 220.063C414.33 220.742 414.513 221.495 414.525 222.261V296.653C414.525 298.128 413.649 298.815 412.567 298.171Z" fill="#E9EAF2"/>
<path d="M450.323 351.928V409.523L630.477 518.269V384.105" stroke="#E9EAF2" stroke-width="0.31" stroke-miterlimit="10"/>
<path d="M521.125 350.081V452.125" stroke="#E9EAF2" stroke-width="0.31" stroke-miterlimit="10"/>
<path d="M576.246 414.621V485.391" stroke="#E9EAF2" stroke-width="0.31" stroke-miterlimit="10"/>
<path d="M450.323 354.177C482.287 374.898 486.806 328.057 521.632 349.079C556.457 370.1 551.65 397.495 577.355 413.017C603.06 428.54 603.663 367.909 630.477 384.105" stroke="#E9EAF2" stroke-width="1.53" stroke-miterlimit="10"/>
<path d="M524.122 355.543C525.779 354.542 525.777 351.294 524.117 348.287C522.457 345.28 519.767 343.654 518.11 344.654C516.453 345.655 516.455 348.903 518.116 351.91C519.776 354.917 522.465 356.543 524.122 355.543Z" fill="#3A9DFC"/>
<path d="M635.997 391.121C637.662 390.121 637.665 386.861 636.005 383.841C634.345 380.82 631.65 379.182 629.985 380.183C628.32 381.183 628.316 384.443 629.977 387.464C631.637 390.484 634.332 392.122 635.997 391.121Z" fill="#3A9DFC"/>
<path d="M581.537 420.497C583.202 419.497 583.206 416.237 581.545 413.217C579.885 410.196 577.19 408.559 575.525 409.559C573.86 410.559 573.857 413.819 575.517 416.84C577.177 419.86 579.872 421.498 581.537 420.497Z" fill="#3A9DFC"/>
<path d="M453.329 359.634C454.987 358.633 454.984 355.385 453.324 352.378C451.664 349.371 448.975 347.745 447.317 348.745C445.66 349.746 445.663 352.994 447.323 356.001C448.983 359.008 451.672 360.634 453.329 359.634Z" fill="#3A9DFC"/>
<path d="M455.404 255.225L448.022 250.772C447.427 250.325 446.94 249.739 446.6 249.06C446.26 248.381 446.076 247.629 446.064 246.862V209.63C446.064 208.127 446.941 207.44 448.022 208.084L455.404 212.552C455.998 212.983 456.488 213.553 456.836 214.217C457.183 214.88 457.377 215.619 457.403 216.375V253.679C457.403 255.182 456.486 255.87 455.404 255.225Z" fill="#E9EAF2"/>
<path d="M472.467 265.493L465.086 261.025C464.49 260.582 464.002 259.999 463.662 259.322C463.322 258.645 463.139 257.894 463.128 257.13V181.234C463.128 179.802 464.004 179.029 465.086 179.687L472.467 184.155C473.063 184.602 473.55 185.188 473.89 185.867C474.23 186.546 474.414 187.298 474.426 188.065V263.961C474.371 265.45 473.495 266.137 472.467 265.493Z" fill="#3A9DFC"/>
<path d="M506.417 286.013L499.035 281.56C498.437 281.116 497.948 280.53 497.608 279.851C497.268 279.171 497.086 278.417 497.077 277.651V209.144C497.077 207.64 497.953 206.953 499.035 207.597L506.417 212.051C507.012 212.497 507.499 213.084 507.839 213.762C508.179 214.441 508.363 215.194 508.375 215.96V284.481C508.375 285.985 507.499 286.672 506.417 286.013Z" fill="#E9EAF2"/>
<path d="M523.425 296.281L516.044 291.827C515.449 291.381 514.961 290.794 514.621 290.116C514.281 289.437 514.098 288.684 514.086 287.918V231.153C514.086 229.721 514.962 228.962 516.044 229.607L523.425 234.075C524.021 234.518 524.509 235.101 524.849 235.778C525.19 236.454 525.373 237.205 525.384 237.97V294.734C525.384 296.252 524.507 296.94 523.425 296.281Z" fill="#3A9DFC"/>
<path d="M557.293 316.73L549.897 312.276C549.304 311.829 548.819 311.242 548.481 310.563C548.143 309.884 547.962 309.132 547.953 308.367V280.314C547.953 278.796 548.816 278.109 549.897 278.767L557.293 283.221C557.884 283.671 558.367 284.258 558.705 284.936C559.042 285.615 559.224 286.366 559.237 287.13V315.183C559.237 316.687 558.361 317.374 557.293 316.73Z" fill="#E9EAF2"/>
<path d="M574.288 326.997L566.961 322.529C566.365 322.086 565.877 321.503 565.537 320.826C565.197 320.15 565.014 319.399 565.003 318.634V223.22C565.003 221.702 565.879 221.015 566.961 221.674L574.342 226.127C574.939 226.573 575.426 227.159 575.767 227.838C576.107 228.517 576.29 229.27 576.301 230.036V325.451C576.246 326.954 575.37 327.642 574.288 326.997Z" fill="#3A9DFC"/>
<path d="M615.769 352.043L608.388 347.575C607.792 347.132 607.304 346.549 606.964 345.872C606.623 345.195 606.44 344.444 606.429 343.68V315.613C606.429 314.109 607.306 313.422 608.388 314.066L615.769 318.534C616.367 318.978 616.856 319.564 617.196 320.243C617.536 320.923 617.718 321.677 617.727 322.443V350.496C617.727 352 616.851 352.687 615.769 352.043Z" fill="#E9EAF2"/>
<path d="M632.778 362.296L625.396 357.828C624.799 357.384 624.31 356.798 623.969 356.119C623.629 355.439 623.447 354.686 623.438 353.919V316.687C623.438 315.183 624.314 314.496 625.396 315.14L632.778 319.594C633.373 320.04 633.86 320.627 634.201 321.306C634.541 321.984 634.724 322.737 634.736 323.503V360.807C634.736 362.296 633.86 362.955 632.778 362.296Z" fill="#3A9DFC"/>
<path opacity="0.4" d="M143.671 713.136L82.538 676.276C75.6085 672.081 76.4713 664.82 84.4827 659.952L115.515 641.207C123.513 636.381 135.578 635.808 142.548 640.104L203.681 677.021C210.611 681.202 209.748 688.477 201.737 693.331L170.705 712.076C162.707 716.831 150.642 717.432 143.671 713.136Z" fill="#D6D8E5"/>
<path d="M235.549 667.126V577.898L105.011 562.533V652.319C104.929 655.068 106.381 657.689 109.667 659.636L170.8 696.553C177.73 700.735 189.836 700.205 197.834 695.379L228.866 676.634C233.372 673.913 235.617 670.405 235.481 667.126H235.549Z" fill="#D6D8E5"/>
<path d="M235.467 587.635V577.898H225.429L169.677 544.232C162.748 540.036 150.642 540.566 142.644 545.391L111.612 564.208C111.06 564.536 110.525 564.895 110.01 565.282L105.011 562.604C105.011 562.604 105.011 572.9 105.011 573.244C104.929 575.965 106.381 578.585 109.667 580.533L170.8 617.435C177.73 621.617 189.836 621.087 197.834 616.261L228.866 597.531C233.508 594.667 235.713 591.087 235.453 587.707L235.467 587.635Z" fill="#EDF0F9"/>
<path d="M170.8 606.753L109.667 569.85C102.738 565.669 103.6 558.394 111.612 553.525L142.644 534.795C150.642 529.955 162.748 529.439 169.677 533.62L230.811 570.523C237.74 574.705 236.877 581.979 228.866 586.848L197.834 605.578C189.836 610.419 177.73 610.934 170.8 606.753Z" fill="#E2E5F2"/>
<path d="M157.024 556.375V552.824H154.942L154.298 552.394C152.251 551.307 149.987 550.741 147.691 550.741C145.394 550.741 143.13 551.307 141.083 552.394C140.691 552.632 140.32 552.906 139.974 553.21L138.344 552.824V556.375C138.42 557.235 138.715 558.059 139.196 558.761C139.677 559.463 140.328 560.018 141.083 560.37C143.13 561.457 145.394 562.023 147.691 562.023C149.987 562.023 152.251 561.457 154.298 560.37C155.053 560.02 155.704 559.465 156.183 558.762C156.662 558.059 156.953 557.235 157.024 556.375Z" fill="#1E90FF"/>
<path d="M147.684 558.466C152.842 558.466 157.024 555.94 157.024 552.824C157.024 549.708 152.842 547.181 147.684 547.181C142.526 547.181 138.344 549.708 138.344 552.824C138.344 555.94 142.526 558.466 147.684 558.466Z" fill="#3A9DFC"/>
<path d="M180.195 571.368C179.686 572.561 178.801 573.536 177.689 574.132C175.642 575.212 173.381 575.774 171.088 575.774C168.795 575.774 166.534 575.212 164.487 574.132C163.375 573.536 162.49 572.561 161.981 571.368C161.296 569.535 162.145 567.573 164.487 566.141C166.534 565.061 168.795 564.499 171.088 564.499C173.381 564.499 175.642 565.061 177.689 566.141C180.044 567.502 180.88 569.463 180.195 571.368Z" fill="#1E90FF"/>
<path d="M180.195 571.368C179.686 572.561 178.801 573.536 177.689 574.132C175.642 575.212 173.381 575.774 171.088 575.774C168.795 575.774 166.534 575.212 164.487 574.132C163.817 574.081 163.191 573.767 162.733 573.253C162.275 572.739 162.021 572.063 162.021 571.361C162.021 570.658 162.275 569.982 162.733 569.468C163.191 568.954 163.817 568.64 164.487 568.59C166.534 567.51 168.795 566.947 171.088 566.947C173.381 566.947 175.642 567.51 177.689 568.59C178.804 569.189 179.688 570.169 180.195 571.368Z" fill="#3A9DFC"/>
<path d="M202.148 584.07V580.518H200.066L199.422 580.089C197.375 579.002 195.111 578.436 192.815 578.436C190.518 578.436 188.255 579.002 186.207 580.089C185.819 580.327 185.448 580.595 185.098 580.891L183.468 580.518V584.07C183.545 584.93 183.839 585.753 184.32 586.455C184.801 587.158 185.453 587.713 186.207 588.065C188.255 589.152 190.518 589.718 192.815 589.718C195.111 589.718 197.375 589.152 199.422 588.065C200.177 587.715 200.828 587.159 201.307 586.457C201.786 585.754 202.077 584.93 202.148 584.07Z" fill="#1E90FF"/>
<path d="M192.808 586.16C197.966 586.16 202.148 583.634 202.148 580.518C202.148 577.402 197.966 574.876 192.808 574.876C187.65 574.876 183.468 577.402 183.468 580.518C183.468 583.634 187.65 586.16 192.808 586.16Z" fill="#3A9DFC"/>
<path d="M89.4265 542.026C89.0567 545.363 85.318 559.769 86.0576 564.709C86.7971 569.65 99.8892 577.898 99.8892 577.898L101.697 569.449L94.4935 562.06L96.4381 548.069L89.4265 542.026Z" fill="#FFCEA9"/>
<path d="M99.4921 527.835C98.2278 527.219 96.7908 527.11 95.4549 527.53C94.119 527.95 92.9774 528.869 92.2476 530.112C90.3303 533.434 88.3446 544.804 88.1392 546.752C88.1392 546.752 90.8781 550.633 94.8633 549.988L99.4921 527.835Z" fill="#EDEDED"/>
<path d="M114.351 688.448C117.184 689.264 120.21 688.878 122.773 687.374C124.8 687.446 135.824 682.505 137.317 686.644C138.686 690.281 133.852 693.632 131.305 694.277C125.745 695.709 121.636 698.573 119.39 699.088C117.733 699.446 115.57 699.689 114.255 698.315C112.653 696.682 112.79 690.611 114.351 688.448Z" fill="#191970"/>
<path d="M119.39 698.071C121.636 697.584 125.745 694.677 131.305 693.274C133.441 692.73 137.125 690.296 137.495 687.374C137.988 690.711 133.688 693.675 131.305 694.277C125.745 695.709 121.636 698.573 119.39 699.088C117.733 699.446 115.57 699.689 114.255 698.315C113.895 697.912 113.64 697.419 113.515 696.883C114.337 697.549 115.297 698.003 116.317 698.21C117.338 698.416 118.391 698.369 119.39 698.071Z" fill="#3A9DFC"/>
<path d="M96.4929 680.057C99.3243 680.876 102.351 680.496 104.915 678.997C106.942 678.997 117.953 674.128 119.459 678.267C120.828 681.89 115.994 685.241 113.447 685.899C107.887 687.331 103.765 690.195 101.533 690.697C99.8618 691.055 97.7118 691.298 96.3834 689.938C94.7948 688.291 94.9317 682.219 96.4929 680.057Z" fill="#191970"/>
<path d="M101.533 689.694C103.765 689.193 107.887 686.3 113.447 684.883C115.583 684.353 119.267 681.904 119.637 678.997C120.13 682.334 115.83 685.284 113.447 685.899C107.887 687.331 103.765 690.195 101.533 690.697C99.8618 691.055 97.7118 691.298 96.3834 689.938C96.0361 689.527 95.7874 689.036 95.6575 688.506C96.4816 689.166 97.4414 689.618 98.461 689.824C99.4807 690.03 100.532 689.986 101.533 689.694Z" fill="#3A9DFC"/>
<path d="M96.2738 648.768C96.7483 644.49 97.5964 640.267 98.8073 636.152C98.8073 636.152 98.0541 625.268 97.6707 614.944C97.2461 603.23 93.3568 592.92 96.4245 583.583L130.976 591.616C130.976 591.616 128.895 638.314 128.429 643.956C128.178 648.358 127.661 652.739 126.881 657.073C125.307 666.138 122.773 687.704 122.773 687.704C119.13 689.923 114.323 688.692 114.323 688.692C114.323 688.692 114.597 661.484 114.83 654.897C115.118 646.92 115.351 647.522 115.351 647.522L114.2 627.66L113.461 617.779C113.461 617.779 112.502 625.025 111.872 631.512C111.338 637.154 110.037 642.266 108.572 652.777C107.312 661.899 105.258 680.229 105.258 680.229C101.601 682.448 96.6436 680.601 96.6436 680.601C96.6436 680.601 95.2878 656.672 96.2738 648.768Z" fill="#3A9DFC"/>
<path d="M101.341 528.021C103.984 528.165 105.942 528.866 106.271 528.021C106.545 526.602 106.742 525.168 106.86 523.725C106.559 522.923 106.298 522.064 106.298 522.064C102.998 519.945 101.957 516.207 101.519 511.854C100.779 504.422 104.614 497.921 111.721 497.147C118.404 496.417 123.335 501.329 124.636 508.074C125.348 511.396 126.758 517.697 124.855 523.167C123.786 526.231 122.417 528.666 121.048 529.138C119.723 529.093 118.401 528.969 117.09 528.766C117.09 528.766 116.734 530.828 116.487 532.145C116.241 533.463 116.337 534.179 118.856 535.797C121.376 537.415 115.036 540.809 110.927 540.48C106.819 540.15 102.135 537.544 100.848 534.752C99.3825 531.616 99.5058 527.935 101.341 528.021Z" fill="#FFCEA9"/>
<path d="M105.121 528.408C104.395 530.313 106.244 532.704 111.187 534.251C116.131 535.797 116.583 533.792 116.583 533.792C119.867 535.33 123.067 537.055 126.169 538.962C129.141 541.138 130.456 547.411 130.853 558.007C131.319 570.265 131.36 588.452 130.963 591.588C130.963 591.588 125.485 597.316 118.322 596.757C111.16 596.199 99.3004 589.597 96.4108 584.514C96.4929 573.759 97.6981 572.012 96.0273 565.826C92.2202 551.649 90.2208 545.778 92.0695 536.427C93.5897 528.651 95.726 527.692 98.6704 527.764C100.83 527.854 102.983 528.07 105.121 528.408Z" fill="#F4F4F4"/>
<path d="M142.028 568.175C136.194 569.707 134.838 565.869 134.071 562.69C132.209 554.986 131.223 548.041 129.84 543.673C128.21 538.518 126.498 537.702 124.115 536.699C121.376 535.511 118.884 538.002 119.815 544.561C120.964 552.171 122.751 559.661 125.156 566.943C125.882 569.335 127.498 573.588 129.935 575.65C132.935 578.184 137.468 578.084 144.315 576.308C147.232 575.535 150.436 573.716 155.955 571.024C157.434 570.308 158.585 569.821 161.433 568.432C164.294 567.097 166.799 565.052 168.733 562.475C170.225 560.213 170.417 559.153 170.102 558.637C169.787 558.122 169.048 558.136 168.253 559.096C167.1 560.699 165.681 562.072 164.063 563.148C164.063 563.148 165.898 561.158 166.897 559.869C167.791 558.723 168.532 557.456 169.102 556.103C169.623 554.785 168.541 552.995 167.733 553.941C166.925 554.886 166.514 555.831 164.994 557.721C164.188 558.73 163.268 559.634 162.255 560.413C163.19 559.093 164.019 557.695 164.734 556.232C165.379 555.089 165.697 553.777 165.651 552.451C165.651 551.764 164.679 550.948 163.802 552.251C162.956 554.041 161.908 555.719 160.68 557.248C159.311 558.68 158.215 559.511 158.188 559.11C158.16 558.709 158.982 557.921 159.461 556.246C159.941 554.571 159.461 552.781 158.571 552.594C157.681 552.408 157.859 552.451 157.202 554.026C156.22 555.642 155.338 557.321 154.559 559.053C154.1 560.665 153.278 562.138 152.162 563.349C150.724 564.953 147.561 566.714 142.028 568.175Z" fill="#FFCEA9"/>
<path d="M121.951 535.64C125.841 535.038 128.593 536.871 130.305 543.029C132.017 549.186 133.222 554.184 133.222 554.184C131.686 556.506 129.358 558.125 126.717 558.709C122.061 559.898 120.39 557.563 120.39 557.563C120.39 557.563 119.103 551.119 118.295 546.723C117.487 542.327 117.145 536.384 121.951 535.64Z" fill="#EDEDED"/>
<path d="M124.389 507.114C124.389 507.114 130.524 497.348 117.213 495.357C107.627 493.925 101.45 500.369 100.779 507.372C100.095 514.059 104.039 521.005 106.874 523.754C109.668 524.498 112.627 524.125 115.173 522.709C115.336 520.89 115.4 519.064 115.364 517.238C115.364 517.238 110.64 506.928 124.389 507.114Z" fill="#191970"/>
<path opacity="0.4" d="M523.932 694.234C542.561 694.234 557.662 685.117 557.662 673.871C557.662 662.624 542.561 653.507 523.932 653.507C505.304 653.507 490.202 662.624 490.202 673.871C490.202 685.117 505.304 694.234 523.932 694.234Z" fill="#D6D8E5"/>
<path d="M523.645 477.386C525.014 475.052 535.696 473.505 539.202 482.942C540.571 486.522 540.325 495.672 541.434 501.415C542.543 507.157 545.159 510.422 546.104 515.076C547.049 519.73 545.515 527.549 534.765 528.938C524.014 530.327 515.757 526.375 513.223 522.795C510.689 519.215 510.635 511.596 513.223 507.501C515.811 503.405 517.866 500.097 517.797 494.77L523.645 477.386Z" fill="#191970"/>
<path d="M530.684 475.768C530.684 475.768 522.659 473.348 517.797 477.873C516.195 479.42 515.03 481.397 514.426 483.588C513.822 485.779 513.804 488.101 514.373 490.302C515.017 492.952 516.318 496.56 518.331 496.761C520.344 496.961 530.684 475.768 530.684 475.768Z" fill="#191970"/>
<path d="M533.751 498.637C533.751 498.637 533.217 507.973 533.382 508.661C533.546 509.348 536.887 510.093 537.832 510.837C538.777 511.582 532.971 521.133 530.026 522.537C527.082 523.94 517.948 520.346 517.304 515.606C516.729 511.224 519.92 507.83 521.152 506.642C521.99 506.559 522.832 506.535 523.672 506.57L523.946 502.045C527.945 500.713 533.751 498.637 533.751 498.637Z" fill="#FFCEA9"/>
<path d="M512.182 516.293C512.182 516.021 510.813 516.78 510.813 516.795C510.813 516.809 510.169 540.78 509.046 542.957C506.184 548.041 498.611 556.661 498.419 557.621C497.858 560.485 499.473 557.922 502.075 557.621C503.541 557.435 512.155 548.327 514.086 546.251L514.209 546.322V546.093L514.455 545.821C514.504 545.173 514.504 544.522 514.455 543.874C518.085 517.826 513.675 516.093 512.182 516.293Z" fill="#FFCEA9"/>
<path d="M534.97 509.577C537.49 509.978 540.352 511.381 540.749 512.813C541.786 517.995 541.541 523.368 540.037 528.422C537.86 534.437 536.394 538.26 535.135 540.852C535.135 540.852 524.275 545.721 515.51 540.036C515.51 540.036 514.907 533.592 514.866 530.141C506.786 522.766 513.702 513.673 520.55 506.613C521.37 506.534 522.195 506.534 523.015 506.613C523.015 506.613 516.907 514.174 521.152 518.47C530.259 515.52 532.067 511.224 534.97 509.577Z" fill="#F4F4F4"/>
<path d="M517.057 487.052C517.948 481.052 522.097 476.512 528.013 476.87C530.397 477.005 532.68 477.92 534.54 479.486C536.399 481.052 537.74 483.19 538.373 485.598C539.006 488.005 538.899 490.559 538.067 492.899C537.235 495.239 535.721 497.246 533.738 498.637C533.534 499.546 533.225 500.425 532.82 501.257C530.725 503.806 525.151 505.424 523.316 505.453C521.727 505.453 520.358 503.921 518.865 501.343C515.77 495.973 516.564 490.016 517.057 487.052Z" fill="#FFCEA9"/>
<path d="M529.862 476.985C533.97 477.83 537.422 479.061 538.558 483.314C539.325 486.264 540.338 491.906 539.38 494.212L538.777 495.916L533.751 498.637C533.751 498.637 531.396 496.589 532.135 490.589C532.107 489.78 531.86 488.995 531.423 488.326C531.109 487.758 530.874 487.145 530.725 486.508C530.128 484.887 528.962 483.565 527.465 482.813C523.727 480.622 518.249 482.512 517.482 483.314C518.541 480.937 520.348 479.011 522.601 477.859C524.854 476.707 527.417 476.399 529.862 476.985Z" fill="#191970"/>
<path d="M537.422 666.868C535.313 668.658 532.039 667.427 531.944 667.584C529.489 669.784 526.92 671.84 524.247 673.742C522.878 674.816 520.892 676.262 521.262 678.324C521.919 682.033 527.589 680.902 529.725 679.756C531.861 678.61 533.614 676.749 535.641 675.46C537.079 674.529 538.503 674.028 538.736 672.138C538.805 670.949 537.791 666.825 537.422 666.868Z" fill="#191970"/>
<path d="M538.654 671.336C538.366 673.169 536.97 673.67 535.532 674.601C533.477 675.933 531.67 677.866 529.533 678.997C527.397 680.128 522.618 681.073 521.234 678.439C521.988 682.004 527.561 680.887 529.67 679.756C531.779 678.625 533.56 676.749 535.586 675.46C537.024 674.529 538.449 674.028 538.681 672.138C538.692 671.87 538.683 671.602 538.654 671.336Z" fill="#3A9DFC"/>
<path d="M522.672 663.789C520.741 665.436 517.838 664.505 517.701 664.663C515.451 666.662 513.101 668.536 510.662 670.276C509.457 671.264 507.581 672.582 507.923 674.472C508.526 677.866 513.716 676.82 515.688 675.789C517.66 674.758 519.235 673.026 521.097 671.823C522.467 670.964 523.713 670.52 523.919 668.773C524.055 667.713 523.015 663.746 522.672 663.789Z" fill="#191970"/>
<path d="M523.905 668.071C523.645 669.746 522.357 670.205 521.043 671.049C519.166 672.281 517.509 674.042 515.565 675.088C513.62 676.133 509.238 676.992 507.964 674.572C508.649 677.837 513.757 676.82 515.702 675.789C517.646 674.758 519.249 673.026 521.111 671.823C522.481 670.964 523.727 670.52 523.932 668.773C523.95 668.538 523.941 668.303 523.905 668.071Z" fill="#3A9DFC"/>
<path d="M511.333 561.544C512.264 553.955 514.935 542.928 514.935 542.928C517.46 544.161 520.19 544.867 522.974 545.005C527.055 544.99 531.126 544.578 535.135 543.773C536.441 546.164 537.872 548.477 539.421 550.704C541.516 553.74 545.584 560.385 544.598 571.998C543.954 579.588 539.887 611.822 539.887 611.822C541.471 617.241 542.314 622.867 542.393 628.533C542.009 635.272 541.157 641.972 539.846 648.581L537.422 666.868C537.422 666.868 534.19 669.317 531.944 667.584L532.231 649.684C531.957 645.302 531.533 638.844 531.273 634.72C530.834 627.989 529.684 617.321 529.355 614.672C529.027 612.022 528.205 607.34 527.808 602.127C527.411 596.915 525.548 570.38 525.548 570.38L525.288 575.349C525.288 575.349 525.028 583.411 523.919 593.363C522.809 603.316 522.426 607.683 522.426 607.683C523.477 609.691 524.212 611.862 524.603 614.113C524.795 616.261 527.137 633.273 525.74 641.923L522.85 663.932C522.134 664.453 521.309 664.786 520.444 664.906C519.58 665.025 518.7 664.927 517.879 664.62L516.181 642.438C515.044 634.004 512.634 616.118 512.264 613.798C511.443 609.112 510.957 604.369 510.813 599.607C510.21 589.984 510.402 569.12 511.333 561.544Z" fill="#FFCEA9"/>
<path d="M535.135 540.852L541.379 553.955C541.379 553.955 550.966 568.533 541.037 606.008L542.886 617.579C542.886 617.579 524.206 630.109 511.703 617.579C511.703 617.579 507.375 582.939 509.676 566.972C510.963 557.796 512.909 548.735 515.496 539.864C515.496 539.864 518.564 543.401 534.313 541.067" fill="#3A9DFC"/>
<path d="M520.55 506.613C520.55 506.613 515.592 505.023 510.32 516.522L512.292 517.754C512.292 517.754 517.482 509.563 520.55 506.613Z" fill="#EDEDED"/>
<path d="M481.835 568.919L503.171 555.96L518.482 565.196L497.145 578.17L481.835 568.919Z" fill="#F4F4F4"/>
<path d="M500.418 556.905C499.08 557.045 497.787 557.485 496.625 558.194C496.198 558.583 495.74 558.933 495.256 559.239C495.05 559.339 494.845 559.482 494.626 559.583C494.299 559.708 494.004 559.908 493.763 560.17C493.524 560.538 493.396 560.971 493.393 561.416C493.284 561.947 493.256 562.493 493.311 563.034C493.503 563.836 494.297 563.764 494.68 563.206C494.888 562.926 495.008 562.586 495.023 562.232C495.034 561.893 495.122 561.563 495.279 561.266C495.436 560.97 495.658 560.717 495.927 560.528L501.021 557.22C500.962 557.11 500.873 557.022 500.766 556.966C500.658 556.91 500.537 556.889 500.418 556.905Z" fill="#FFCEA9"/>
<path d="M541.01 516.952C540.311 513.916 538.038 514.89 536.079 513.114C531.547 519.83 534.559 537.988 535.176 539.921L517.756 551.535L516.578 552.294C514.595 553.656 512.405 554.653 510.101 555.244C508.361 555.458 507.457 558.022 505.595 558.251C505.453 558.256 505.315 558.305 505.2 558.392C505.084 558.478 504.995 558.598 504.944 558.737C504.893 558.876 504.882 559.027 504.912 559.172C504.943 559.318 505.014 559.45 505.116 559.554C505.855 560.299 507.855 559.683 509.224 558.022C509.217 558.06 509.217 558.098 509.224 558.136C509.235 558.402 509.312 558.66 509.446 558.886C509.58 559.112 509.768 559.297 509.991 559.425C510.091 559.489 510.203 559.528 510.32 559.54C510.319 559.661 510.352 559.781 510.416 559.883C510.514 560.094 510.661 560.275 510.842 560.413C511.024 560.55 511.234 560.639 511.456 560.671C511.554 560.965 511.741 561.217 511.988 561.39C512.235 561.563 512.529 561.648 512.826 561.63C513.225 561.609 513.602 561.43 513.88 561.129C515.366 560.537 516.678 559.55 517.687 558.265C518.58 557.296 519.521 556.378 520.509 555.516C525.233 553.382 539.407 547.053 540.037 546.15C541.023 544.79 542.023 521.248 541.01 516.952Z" fill="#FFCEA9"/>
<path d="M542.598 525.1C542.598 525.1 537.024 527.706 532.396 525.272L533.067 516.15C533.067 516.15 533.135 511.253 537.312 510.766C541.489 510.279 543.68 515.878 542.598 525.1Z" fill="#EDEDED"/>
</svg>
